<svg width="62" height="48" viewBox="0 0 62 48" fill="none" xmlns="http://www.w3.org/2000/svg">
<path d="M44.9309 9.57948V26.3847L39.8145 30.6024V11.9894C41.0588 11.5222 42.3952 11.0334 43.8247 10.5222C44.0239 10.4588 44.1672 10.2686 44.251 9.95268L44.7684 8.0918C44.8757 8.69607 44.9309 9.19197 44.9309 9.57948Z" fill="white"/>
<path d="M26.6025 43.9998H10.0478C9.81369 43.9998 9.27997 43.9417 8.44769 43.8261C7.61438 43.7095 6.69416 43.2831 5.68601 42.5469C5.25862 42.2372 4.93041 41.8394 4.69831 41.3547C4.46519 40.8702 4.29955 40.3957 4.20344 39.9305C4.10733 39.4642 4.04905 39.0491 4.02962 38.6801C4.02655 38.6319 4.02451 38.5849 4.02246 38.541C4.0562 38.6208 4.13084 38.6995 4.2474 38.7793C6.26063 40.1493 7.64096 40.8109 8.39043 40.7639C9.13887 40.7157 9.95582 40.4919 10.8413 40.0911C11.7482 39.6841 12.558 39.1943 13.2717 38.6196H24.3398L26.6025 43.9998Z" fill="white"/>
<path d="M44.5632 7.25767C44.505 7.27096 44.4375 7.28937 44.3608 7.31288C42.7452 7.81798 41.2289 8.32614 39.8138 8.83737V8.73308H9.5806V38.1299C7.60111 38.9315 5.90178 38.9631 4.48362 38.225C4.28322 38.1197 4.13598 38.1463 4.04089 38.3048C4.02863 38.3241 4.01943 38.3446 4.01329 38.3641C4.00409 38.1698 4 38.0328 4 37.9529V9.17366C4 8.825 4.04805 8.43851 4.14416 8.01112C4.2413 7.58476 4.40592 7.14816 4.63802 6.70237C4.87216 6.25658 5.2198 5.84043 5.68502 5.45292C6.07253 5.14311 6.48867 4.89261 6.93549 4.69732C7.38026 4.50408 7.81686 4.35888 8.24322 4.26073C8.66959 4.16359 9.0479 4.09611 9.37713 4.05726C9.70636 4.01943 9.92926 4 10.0468 4H38.8834C39.3496 4 40.0071 4.0685 40.8608 4.20347C41.7125 4.33843 42.4876 4.73719 43.1859 5.39464C43.8679 6.0164 44.328 6.63703 44.5632 7.25767Z" fill="white"/>
<path d="M9.58098 38.6186H13.2711C12.5574 39.1931 11.7476 39.6828 10.8407 40.0899C9.9552 40.4907 9.13826 40.7146 8.38981 40.7627C7.64035 40.8097 6.26002 40.1482 4.24679 38.7781C4.13023 38.6983 4.05559 38.6196 4.02185 38.5398C4.01776 38.4764 4.01572 38.4171 4.01367 38.3631C4.01981 38.3436 4.029 38.3231 4.04127 38.3037C4.13636 38.1452 4.2836 38.1186 4.484 38.224C5.90216 38.9622 7.60149 38.9305 9.58098 38.1289V38.6186Z" fill="white"/>
<path d="M44.7674 8.09317L44.25 9.95405C44.1662 10.27 44.023 10.4602 43.8237 10.5236C42.3943 11.0348 41.0578 11.5235 39.8135 11.9908V8.83752C41.2286 8.32629 42.7449 7.81813 44.3605 7.31303C44.4372 7.28951 44.5046 7.2711 44.5628 7.25781C44.6211 7.4122 44.6661 7.5666 44.6969 7.72099C44.7224 7.8488 44.7459 7.97354 44.7674 8.09317Z" fill="white"/>
<path d="M57.4589 26.3379L35.5482 43.9986H29.3303L24.4648 32.853H30.9033L33.4468 38.8491L34.0703 38.3349L48.6196 26.3379H57.4589Z" fill="white"/>
<path d="M25.2611 35.1263C24.6602 34.5781 23.9748 34.1722 23.2055 33.9088C23.0894 33.8772 23.0104 33.8981 22.9683 33.9721L21.9248 35.5216C21.3872 35.1105 20.8021 34.7942 20.1696 34.5729C20.0535 34.5306 19.9745 34.5465 19.9324 34.6203L18.5094 36.7391C18.4671 36.8129 18.483 36.8707 18.5568 36.9131C19.7796 37.6508 20.4594 38.0778 20.5966 38.1938C20.7334 38.3097 20.8283 38.3255 20.8812 38.2413L21.988 36.5019C22.9577 37.092 23.5059 37.44 23.6324 37.5455C23.7693 37.6614 23.8642 37.6772 23.9171 37.5929L25.3085 35.3793C25.3611 35.2844 25.3452 35.1999 25.2611 35.1263Z" fill="white"/>
<path d="M44.7415 7.23438C44.6945 7.23438 44.6362 7.24255 44.5636 7.25789C44.5055 7.27118 44.438 7.28959 44.3613 7.31311C42.7457 7.8182 41.2294 8.32637 39.8143 8.8376C34.0988 10.906 30.0119 13.0389 27.5539 15.2352C26.8474 15.8681 26.5202 17.0009 26.5734 18.6348C26.6051 19.7943 26.7994 20.464 27.1582 20.643C30.3412 22.2452 32.5977 24.1214 33.9259 26.2716C33.9464 26.3565 33.9259 26.4301 33.8625 26.4935C31.8595 28.4965 29.0876 29.2449 25.5458 28.7388C25.1348 28.6591 24.7381 28.4791 24.3557 28.1969C23.9733 27.9147 23.6052 27.5323 23.2524 27.0467C23.2207 26.9833 23.1972 26.8514 23.1819 26.651C23.1655 26.4516 23.0684 26.3514 22.8895 26.3514C22.7095 26.3514 22.5623 26.4402 22.4467 26.6192C21.6625 27.8268 20.1114 28.5282 17.7945 28.7255C17.7465 28.7112 17.6953 28.7051 17.639 28.7071C17.4601 28.7174 17.2914 28.7286 17.134 28.7388C17.0491 27.2839 16.6964 26.1244 16.0737 25.2604C15.4623 24.4169 14.72 24.24 13.8447 24.7297C12.9695 25.2205 12.2998 26.1346 11.8366 27.474C11.6996 27.8748 11.6096 28.2163 11.5677 28.5016C11.3888 29.7449 11.6679 30.5803 12.4061 31.0078C13.1433 31.4341 14.3079 31.659 15.8999 31.6794C15.9531 31.7112 15.9796 31.7643 15.9796 31.8379C15.1463 34.1671 13.5707 35.9912 11.2518 37.3092C10.6741 37.6394 10.1179 37.9135 9.58107 38.1302C7.60158 38.9319 5.90225 38.9635 4.48409 38.2253C4.28369 38.12 4.13645 38.1465 4.04136 38.305C4.02909 38.3244 4.01989 38.345 4.01376 38.3643C3.99331 38.4236 3.99535 38.4829 4.02193 38.5412C4.05567 38.6209 4.13032 38.6997 4.24688 38.7794C6.26011 40.1494 7.64043 40.8111 8.3899 40.764C9.13834 40.7159 9.95529 40.492 10.8407 40.0912C11.7477 39.6843 12.5575 39.1944 13.2711 38.6198C15.2353 37.0453 16.4653 34.8419 16.9592 32.0116C16.9806 31.8951 16.996 31.7846 17.0072 31.6793C17.27 31.6793 17.4816 31.6742 17.6391 31.6641C17.6503 31.6641 17.6616 31.663 17.6728 31.661C19.6268 31.5189 21.0817 30.8665 22.0357 29.703C23.0612 30.8492 24.0796 31.4923 25.0908 31.6334C25.146 31.6724 25.2084 31.699 25.2769 31.7112C27.0049 32.0272 28.9925 31.9065 31.2379 31.3471C32.1867 31.116 32.9873 30.5569 33.6406 29.6713C34.2838 28.7971 34.6008 27.6059 34.5895 26.0978C34.5577 23.3893 32.2706 20.6747 27.7277 17.9549C27.601 17.8915 27.5795 17.8179 27.6644 17.733C28.922 16.4764 32.972 14.5613 39.8143 11.9909C41.0586 11.5236 42.395 11.0349 43.8245 10.5236C44.0238 10.4602 44.167 10.2701 44.2509 9.95413L44.7682 8.09325L44.8838 7.6771C44.9156 7.56157 44.9308 7.48692 44.9308 7.45522C44.9307 7.30799 44.8673 7.23438 44.7415 7.23438ZM15.268 28.659C14.1188 28.6804 13.3754 28.4749 13.0379 28.0425C12.8908 27.8533 12.8641 27.6999 12.9592 27.5845C13.18 27.2992 13.4806 27.1315 13.86 27.0783C14.4827 27.0569 14.999 27.4996 15.41 28.4065C15.4521 28.5752 15.405 28.659 15.268 28.659Z" fill="white"/>
</svg>
